<svg width="20" height="20" viewBox="0 0 20 20" fill="none" xmlns="http://www.w3.org/2000/svg">
<path d="M10.0006 0C4.48728 0 0.000732422 4.48568 0.000732422 9.99965C0.000732422 15.5136 4.48699 20 10.0006 20C15.5151 20 20.0004 15.5139 20.0004 9.99965C20.0004 4.48568 15.5153 0 10.0006 0ZM14.3285 7.95082L9.0912 13.1881C8.93395 13.3451 8.72672 13.4244 8.52141 13.4244C8.31452 13.4244 8.10921 13.3452 7.95144 13.1881L5.67371 10.9103C5.3588 10.5951 5.3588 10.0853 5.67371 9.77046C5.98856 9.4556 6.49839 9.4556 6.8133 9.77046L8.52141 11.4791L13.1896 6.81076C13.5038 6.49626 14.0135 6.49626 14.3285 6.81076C14.6434 7.12614 14.6434 7.63597 14.3285 7.95082Z" fill="#45CB80"/>
</svg>
