<svg width="14" height="14" viewBox="0 0 14 14" fill="none" xmlns="http://www.w3.org/2000/svg">
<g clip-path="url(#clip0_156_74)">
<path d="M13.282 2.33337H0.717965C0.323066 2.33337 0 2.65644 0 3.05131V10.9488C0 11.3436 0.323066 11.6667 0.717965 11.6667H13.2821C13.6769 11.6667 14 11.3437 14 10.9488V3.05131C14 2.65644 13.6769 2.33337 13.282 2.33337ZM13.0126 2.8718L7.413 7.07185C7.31232 7.14847 7.15777 7.1964 6.99997 7.19569C6.8422 7.1964 6.68768 7.14847 6.58697 7.07185L0.987355 2.8718H13.0126ZM10.0215 7.34898L13.0728 11.1182C13.0758 11.122 13.0796 11.1249 13.0828 11.1283H0.917164C0.920391 11.1247 0.924164 11.122 0.927227 11.1182L3.97852 7.34898C4.072 7.2334 4.05429 7.06395 3.93848 6.97024C3.8229 6.87676 3.65345 6.89448 3.55994 7.01009L0.538453 10.7425V3.20835L6.26407 7.50257C6.47929 7.66286 6.74114 7.73341 6.99995 7.73412C7.2584 7.73357 7.52046 7.66303 7.73582 7.50257L13.4614 3.20835V10.7425L10.44 7.01009C10.3465 6.8945 10.1769 6.87673 10.0615 6.97024C9.94571 7.06373 9.92794 7.2334 10.0215 7.34898Z" fill="#F9B233"/>
</g>
<defs>
<clipPath id="clip0_156_74">
<rect width="14" height="14" fill="white"/>
</clipPath>
</defs>
</svg>
