<svg width="12" height="14" viewBox="0 0 12 14" fill="none" xmlns="http://www.w3.org/2000/svg">
<path d="M8.41837 5.00261C8.41837 6.38353 7.29339 7.50387 5.90566 7.50387C4.51773 7.50387 3.39294 6.38353 3.39294 5.00261C3.39294 3.6213 4.51793 2.50135 5.90566 2.50135C7.29369 2.50126 8.41837 3.6212 8.41837 5.00261ZM11.0254 5.00261C11.0254 2.23969 8.77555 0 5.99989 0C3.22443 0 0.974365 2.23969 0.974365 5.00261C0.974365 6.21738 1.40978 7.3312 2.13333 8.19758L6.00424 13.7571L9.93175 8.11649C10.0728 7.94076 10.202 7.75555 10.3186 7.56086L10.3583 7.50416H10.3518C10.7795 6.76787 11.0254 5.91423 11.0254 5.00261Z" fill="#F9B233"/>
</svg>
