<svg width="16" height="16" viewBox="0 0 16 16" fill="none" xmlns="http://www.w3.org/2000/svg">
<path d="M11.6435 9.12284L11.6152 9.09455L11.5869 9.12284L9.61152 11.0986C8.37293 11.0522 7.21518 10.5479 6.33388 9.66648C5.45314 8.78556 4.94895 7.62855 4.90214 6.39051L6.8786 4.4137L6.90688 4.38542L6.8786 4.35714L3.49374 0.971718L3.46546 0.943427L3.43717 0.971718L0.971713 3.43758L0.959997 3.44929L0.96 3.46586L0.960028 3.6416C0.960369 5.12166 1.24135 6.56462 1.7952 7.93022C2.36873 9.34432 3.21107 10.6129 4.2987 11.7007C5.38693 12.7892 6.65616 13.632 8.07096 14.2056C9.43649 14.7593 10.8792 15.04 12.359 15.04H12.3615L12.5371 15.04L12.5537 15.04L12.5654 15.0283L15.0283 12.5649L15.0566 12.5366L15.0283 12.5083L11.6435 9.12284ZM1.88989 3.83203L3.46543 2.25621L5.5943 4.38545L3.9821 5.99793L3.97038 6.00965L3.97038 6.02622L3.97041 6.20195C3.97075 7.75855 4.57711 9.22218 5.67759 10.3229C6.7785 11.424 8.24215 12.0304 9.79901 12.0303H9.80034L9.97594 12.0303L9.99251 12.0303L10.0042 12.0186L11.6151 10.4074L13.744 12.5366L12.1708 14.1101C10.877 14.0874 9.61592 13.8304 8.41966 13.3454C7.12067 12.8187 5.955 12.0445 4.95499 11.0443C3.95557 10.0447 3.18185 8.8796 2.65527 7.58126C2.17036 6.3856 1.91313 5.12529 1.88989 3.83203Z" fill="#F9B233" stroke="black" stroke-width="0.08"/>
</svg>
